# xmcd
#
# Track frame offsets:
#	150
#	13943
#	28239
#	44207
#	61086
#	76478
#	87802
#	100068
#	118119
#	133834
#	148182
#	163405
#	180036
#	191817
#	206525
#	222463
#	239112
#	254616
#
# Disc length: 3599 seconds
#
# Revision: 1
# Processed by: cddbd v1.5.2PL0 Copyright (c) Steve Scherf et al.
# Submitted via: audiograbber 1.83.01
#
DISCID=180e0d12
DTITLE=Lasse Stefanz - Rallarsväng (DeLuxe)
DYEAR=2008
DGENRE=Danseband
TTITLE0=Lasse Stefanz - Til Österlen
TTITLE1=Lasse Stefanz - Hemmahamn
TTITLE2=Lasse Stefanz och Plura - En runda i baren
TTITLE3=Lasse Stefanz - Innan allt är för sent
TTITLE4=Lasse Stefanz - Hållplats 31
TTITLE5=Lasse Stefanz - He'll Have To Go
TTITLE6=Lasse Stefanz - Kalla det drömmar om du vill
TTITLE7=Lasse Stefanz - När skuggorna faller
TTITLE8=Lasse Stefanz - Angel Lee
TTITLE9=Lasse Stefanz - Hem igjen
TTITLE10=Lasse Stefanz - Slöseri med kärlek
TTITLE11=Lasse Stefanz - Ensam weekend
TTITLE12=Lasse Stefanz - Mot lugnare vatten
TTITLE13=Lasse Stefanz - Jag lever för livet
TTITLE14=Lasse Stefanz och Flemming "Bamse" Jörgensen - En runda i baren
TTITLE15=Lasse Stefanz - Vid en liten fiskehamn
TTITLE16=Lasse Stefanz - Peppelinos bar
TTITLE17=Lasse Stefanz - Nu är sommaren tillbaka (Die Erinnerung Ist Alles Was 
TTITLE17=Mir Bleib)
EXTD=
EXTT0=
EXTT1=
EXTT2=
EXTT3=
EXTT4=
EXTT5=
EXTT6=
EXTT7=
EXTT8=
EXTT9=
EXTT10=
EXTT11=
EXTT12=
EXTT13=
EXTT14=
EXTT15=
EXTT16=
EXTT17=
PLAYORDER=
